<svg width="121" height="35" viewBox="0 0 121 35" fill="none" xmlns="http://www.w3.org/2000/svg">
<path d="M1.77441 9.58594C1.5366 10.6835 1.4082 11.8 1.4082 12.9707C1.40836 21.6963 8.4697 28.7568 17.1953 28.7568C20.7442 28.7568 23.9093 27.166 26.0312 24.6416L26.8174 25.4824L29.9277 28.7754C26.7813 32.2328 22.2442 34.4102 17.1953 34.4102C7.70144 34.4101 0.000243681 26.7087 0 17.2148C0 14.4709 0.640247 11.8909 1.77441 9.58594ZM105.807 26.709H105.788C107.507 30.8061 108.898 31.2269 110.508 30.1113L110.124 31.0254C109.008 33.4218 107.416 34.4645 105.807 34.373C104.014 34.2632 102.203 32.7452 101.105 30.0928L90.8613 0.732422H96.9893L105.807 26.709ZM42.2021 27.3672C42.9155 27.7513 43.7389 27.9885 44.5986 28.0068H57.9336V33.6602H49.0068C45.4032 33.6601 42.4766 30.8793 42.2021 27.3672ZM78.459 0.768555C81.6967 0.915006 84.3494 3.29385 84.8799 6.42188C84.9347 6.78763 84.9707 7.1719 84.9707 7.57422C84.9707 8.78146 84.6601 9.91556 84.1113 10.9033C83.6906 8.39719 81.5497 6.47649 78.9521 6.40332H68.416V17.1963H78.8066C79.4468 17.1962 80.0502 17.086 80.6172 16.8848C84.7697 15.8238 87.8428 12.0375 87.8428 7.55566C87.8428 7.15324 87.8244 6.7689 87.7695 6.38477C87.7146 5.87271 87.6056 5.37881 87.4775 4.90332C87.8616 5.36055 88.1908 5.8544 88.4834 6.38477C89.3798 7.99455 89.8916 9.84245 89.8916 11.7998C89.8916 15.0009 88.5202 17.9097 86.3252 19.9219C85.5386 20.6536 84.6599 21.2568 83.6904 21.7324L90.5869 33.6602H84.0566L77.8184 22.8486H68.4521V33.6602H62.7998V0.768555H78.459ZM57.916 6.36621L57.9336 6.38477H39.3662V14.3604H54.0928V20.0137H39.3662V27.0195C39.4028 28.7939 39.9156 30.4403 40.7754 31.8672C41.0863 32.361 41.4157 32.8371 41.7998 33.2578C39.5132 32.6176 37.5369 31.2632 36.0918 29.4521C36.0918 29.4521 36.0918 29.471 36.0918 29.4893C35.7259 29.0319 35.3786 28.519 35.0859 28.0068C34.1897 26.4155 33.6778 24.5682 33.6777 22.5928V0.713867H57.916V6.36621ZM113.38 23.251C112.484 25.6657 110.325 29.8179 108.258 25.2812C107.965 24.6412 107.673 23.9098 107.325 23.0869L114.605 0.732422H120.733L113.38 23.251ZM17.1953 0.000976562C22.2442 0.000976562 26.7813 2.17739 29.9277 5.63477L28.6836 6.95215L26.0312 9.76953C23.9093 7.2451 20.7442 5.65332 17.1953 5.65332C10.8294 5.65338 5.65234 10.8121 5.65234 17.1963C5.65235 17.8731 5.70763 18.5317 5.81738 19.1719C4.81127 17.3243 4.24415 15.2022 4.24414 12.9521C4.24414 5.92763 9.84189 0.2022 16.8115 0.000976562H17.1953ZM62.7998 0.768555H62.7637L62.7998 0.732422V0.768555Z" fill="black"/>
</svg>
